<svg width="16" height="16" viewBox="0 0 16 16" fill="none" xmlns="http://www.w3.org/2000/svg">
<path fill-rule="evenodd" clip-rule="evenodd" d="M8.00001 1C8.13261 1 8.25979 1.05268 8.35356 1.14645C8.44733 1.24021 8.50001 1.36739 8.50001 1.5V13.293L11.646 10.146C11.7399 10.0521 11.8672 9.99937 12 9.99937C12.1328 9.99937 12.2601 10.0521 12.354 10.146C12.4479 10.2399 12.5006 10.3672 12.5006 10.5C12.5006 10.6328 12.4479 10.7601 12.354 10.854L8.35401 14.854C8.30756 14.9006 8.25238 14.9375 8.19164 14.9627C8.13089 14.9879 8.06577 15.0009 8.00001 15.0009C7.93424 15.0009 7.86912 14.9879 7.80837 14.9627C7.74763 14.9375 7.69245 14.9006 7.64601 14.854L3.64601 10.854C3.55212 10.7601 3.49937 10.6328 3.49937 10.5C3.49937 10.3672 3.55212 10.2399 3.64601 10.146C3.73989 10.0521 3.86723 9.99937 4.00001 9.99937C4.13278 9.99937 4.26012 10.0521 4.35401 10.146L7.50001 13.293V1.5C7.50001 1.36739 7.55268 1.24021 7.64645 1.14645C7.74022 1.05268 7.8674 1 8.00001 1Z" fill="#212529"/>
</svg>
