<svg width="16" height="16" viewBox="0 0 16 16" fill="none" xmlns="http://www.w3.org/2000/svg">
<g clip-path="url(#clip0_9_197323)">
<path d="M3.65401 1.32781C3.59498 1.25187 3.52046 1.18936 3.43542 1.14443C3.35037 1.0995 3.25673 1.07319 3.16073 1.06723C3.06473 1.06127 2.96856 1.07581 2.87861 1.10987C2.78866 1.14394 2.70698 1.19675 2.63901 1.26481L1.60501 2.29981C1.12201 2.78381 0.944013 3.46881 1.15501 4.06981C2.03075 6.55739 3.45531 8.8159 5.32301 10.6778C7.18494 12.5455 9.44344 13.97 11.931 14.8458C12.532 15.0568 13.217 14.8788 13.701 14.3958L14.735 13.3618C14.8031 13.2938 14.8559 13.2122 14.8899 13.1222C14.924 13.0323 14.9385 12.9361 14.9326 12.8401C14.9266 12.7441 14.9003 12.6505 14.8554 12.5654C14.8105 12.4804 14.748 12.4058 14.672 12.3468L12.365 10.5528C12.2839 10.4899 12.1895 10.4462 12.0891 10.4251C11.9886 10.4039 11.8846 10.4059 11.785 10.4308L9.59501 10.9778C9.30269 11.0509 8.99644 11.047 8.70606 10.9666C8.41568 10.8861 8.15108 10.7319 7.93801 10.5188L5.48201 8.06181C5.26878 7.84884 5.11434 7.58429 5.03373 7.29391C4.95311 7.00352 4.94908 6.69721 5.02201 6.40481L5.57001 4.21481C5.59492 4.1152 5.59688 4.01124 5.57575 3.91077C5.55461 3.8103 5.51094 3.71594 5.44801 3.63481L3.65401 1.32781ZM1.88401 0.510807C2.05901 0.335756 2.26924 0.199937 2.50075 0.112368C2.73226 0.0247988 2.97976 -0.0125165 3.22679 0.00289975C3.47383 0.018316 3.71477 0.0861112 3.93359 0.201783C4.15242 0.317456 4.34414 0.478358 4.49601 0.673807L6.29001 2.97981C6.61901 3.40281 6.73501 3.95381 6.60501 4.47381L6.05801 6.66381C6.02973 6.77724 6.03126 6.89605 6.06245 7.00872C6.09364 7.12138 6.15343 7.22407 6.23601 7.30681L8.69301 9.76381C8.77585 9.84656 8.87871 9.90645 8.99156 9.93764C9.10442 9.96884 9.22344 9.97027 9.33701 9.94181L11.526 9.39481C11.7826 9.33065 12.0505 9.32566 12.3093 9.38023C12.5681 9.4348 12.8111 9.5475 13.02 9.70981L15.326 11.5038C16.155 12.1488 16.231 13.3738 15.489 14.1148L14.455 15.1488C13.715 15.8888 12.609 16.2138 11.578 15.8508C8.9392 14.9223 6.54329 13.4116 4.56801 11.4308C2.5873 9.45582 1.07662 7.06027 0.148013 4.42181C-0.213987 3.39181 0.111013 2.28481 0.851013 1.54481L1.88501 0.510807H1.88401Z" fill="#212529"/>
</g>
<defs>
<clipPath id="clip0_9_197323">
<rect width="16" height="16" fill="white"/>
</clipPath>
</defs>
</svg>
